<mxfile host="65bd71144e">
    <diagram name="Model Comparison - Round 5B" id="model-comparison-round5b">
        <mxGraphModel dx="1516" dy="711" grid="1" gridSize="10" guides="1" tooltips="1" connect="1" arrows="1" fold="1" page="1" pageScale="1" pageWidth="1400" pageHeight="1000" math="0" shadow="0">
            <root>
                <mxCell id="0"/>
                <mxCell id="1" parent="0"/>
                <object label="🧩 Model Comparison — Round 5B (Production-Style, SSH via `ollama run`)" tooltip="Round 5B comparison of 4 different AI coding models tested via SSH connection to Ollama. This comprehensive evaluation covers 5 production-style scenarios: Lit 3 component synthesis, JavaScript closure bug review, refactoring to Lit 3 with decorators, fetch integration in Lit 3, and reactive properties vs internal state concepts. The comparison reveals significant differences in Lit 3 framework understanding, debugging capabilities, and modern web development expertise across different model architectures and sizes." id="title">
                    <mxCell style="rounded=1;whiteSpace=wrap;html=1;fontSize=20;fontStyle=1;fillColor=#dae8fc;strokeColor=#6c8ebf;verticalAlign=top;spacingTop=10;spacingBottom=10;" parent="1" vertex="1">
                        <mxGeometry x="40" y="20" width="1320" height="60" as="geometry"/>
                    </mxCell>
                </object>
                <object label="📋 Test Environment &amp; Scope" tooltip="SSH-based testing environment connecting to Ollama models via tunnel. This round evaluates production-style Lit 3 development, JavaScript debugging, and modern web development concepts. The scope covers 5 distinct scenarios that test different aspects of web development expertise: component synthesis, bug identification, refactoring, API integration, and framework concepts." id="test-environment-title">
                    <mxCell style="rounded=1;whiteSpace=wrap;html=1;fontSize=14;fontStyle=1;fillColor=#fff2cc;strokeColor=#d6b656;verticalAlign=top;spacingTop=10;spacingBottom=10;" parent="1" vertex="1">
                        <mxGeometry x="40" y="100" width="1320" height="40" as="geometry"/>
                    </mxCell>
                </object>
                <object label="🔧 Environment Details&lt;br&gt;&lt;br&gt;• Connection: `&lt;span style=&quot;color: rgb(0, 0, 0);&quot;&gt;ssh -p 9922 donges@home.donges.it&lt;/span&gt;`&lt;br&gt;• Models: deepseek-coder:6.7b, starcoder2:7b, qwen2.5-coder:7b, starcoder2:15b&lt;br&gt;• Testing: Direct SSH via `ollama run` (no Continue integration)&lt;br&gt;• Focus: Production-style Lit 3 development without tool calling complexity" tooltip="SSH connection environment providing direct access to Ollama models without Continue extension complexity. This setup allows pure evaluation of Lit 3 and web development understanding without tool calling schema issues. The environment tests 4 models across 5 production-style scenarios, focusing on modern web development, debugging, and framework expertise." id="environment-details">
                    <mxCell style="rounded=1;whiteSpace=wrap;html=1;fontSize=11;fillColor=#fff2cc;strokeColor=#d6b656;verticalAlign=top;spacingTop=5;" parent="1" vertex="1">
                        <mxGeometry x="40" y="160" width="640" height="120" as="geometry"/>
                    </mxCell>
                </object>
                <object label="🎯 Test Scenarios&lt;br&gt;&lt;br&gt;• **A1** — Lit 3 component synthesis (`user-profile-card`)&lt;br&gt;• **B1** — JS closure bug review and debugging&lt;br&gt;• **C1** — Refactor to Lit 3 with decorators &amp; button&lt;br&gt;• **D2** — Fetch integration in Lit 3 (`user-list`)&lt;br&gt;• **E1** — Concept: reactive properties vs internal state" tooltip="Five comprehensive test scenarios covering different aspects of modern web development expertise. A1 tests Lit 3 component creation with decorators and styling. B1 evaluates JavaScript debugging and closure understanding. C1 challenges refactoring skills and framework migration. D2 tests API integration and lifecycle management. E1 evaluates framework concept understanding and best practices." id="test-scenarios">
                    <mxCell style="rounded=1;whiteSpace=wrap;html=1;fontSize=11;fillColor=#e1d5e7;strokeColor=#9673a6;verticalAlign=top;spacingTop=5;" parent="1" vertex="1">
                        <mxGeometry x="700" y="160" width="660" height="120" as="geometry"/>
                    </mxCell>
                </object>
                <object label="🧩 A1 — Lit 3 Component Synthesis Results&lt;br&gt;&lt;br&gt;**Prompt:** Create a responsive Lit 3 component called `user-profile-card` that takes `name`, `email`, and `avatarUrl` as reactive properties and displays them with simple CSS. Use `@customElement(&#39;user-profile-card&#39;)` and `@property` decorators. Include a &lt;style&gt; block or static styles with basic layout styling. The component must render the avatar on the left and the text info on the right. Return the full TypeScript code." tooltip="Results for A1: Lit 3 component synthesis with decorators and responsive styling. This test evaluates models&#39; understanding of modern Lit 3 patterns, decorator usage, reactive properties, and CSS styling. The challenge requires proper import statements, decorator implementation, responsive layout, and clean TypeScript code structure." id="a1-title">
                    <mxCell style="rounded=1;whiteSpace=wrap;html=1;fontSize=16;fontStyle=1;fillColor=#d5e8d4;strokeColor=#82b366;verticalAlign=top;spacingTop=10;" parent="1" vertex="1">
                        <mxGeometry x="40" y="300" width="1320" height="120" as="geometry"/>
                    </mxCell>
                </object>
                <object label="🥇 Winner: Qwen 2.5 7B&lt;br&gt;&lt;br&gt;✅ Excellent Lit 3 implementation&lt;br&gt;✅ Perfect decorators usage&lt;br&gt;✅ Clean TypeScript code&lt;br&gt;✅ Responsive flexbox layout" tooltip="Qwen 2.5 7B wins A1 with excellent Lit 3 implementation and perfect decorator usage. The model correctly implemented @customElement and @property decorators, used proper Lit 3 imports, and created clean TypeScript code with responsive flexbox layout. This represents the best understanding of modern Lit 3 component development." id="a1-winner">
                    <mxCell style="rounded=1;whiteSpace=wrap;html=1;fontSize=12;fillColor=#d5e8d4;strokeColor=#82b366;verticalAlign=top;spacingTop=5;" parent="1" vertex="1">
                        <mxGeometry x="40" y="440" width="320" height="110" as="geometry"/>
                    </mxCell>
                </object>
                <object label="🥈 StarCoder 15B&lt;br&gt;&lt;br&gt;✅ Very good Lit 3 implementation&lt;br&gt;✅ Correct decorators usage&lt;br&gt;⚠️ Minimal CSS styling&lt;br&gt;✅ Clean and concise code" tooltip="StarCoder 15B shows very good A1 performance with correct Lit 3 implementation and proper decorator usage. The model implemented the component correctly with clean, concise code. However, it provided minimal CSS styling compared to other models, focusing more on functionality than visual presentation." id="a1-starcoder15b">
                    <mxCell style="rounded=1;whiteSpace=wrap;html=1;fontSize=12;fillColor=#fff2cc;strokeColor=#d6b656;verticalAlign=top;spacingTop=5;" parent="1" vertex="1">
                        <mxGeometry x="380" y="440" width="320" height="110" as="geometry"/>
                    </mxCell>
                </object>
                <object label="🥉 DeepSeek 6.7B&lt;br&gt;&lt;br&gt;✅ Partial implementation&lt;br&gt;⚠️ Legacy `lit-element` import&lt;br&gt;⚠️ Missing `@customElement` decorator&lt;br&gt;✅ Good flexbox layout" tooltip="DeepSeek 6.7B shows partial A1 implementation with good layout and TypeScript code. However, it used legacy `lit-element` import instead of modern `lit` and missed the `@customElement` decorator. The model demonstrated good understanding of responsive design with flexbox but fell short on modern Lit 3 patterns." id="a1-deepseek">
                    <mxCell style="rounded=1;whiteSpace=wrap;html=1;fontSize=12;fillColor=#ffe6cc;strokeColor=#d79b00;verticalAlign=top;spacingTop=5;" parent="1" vertex="1">
                        <mxGeometry x="720" y="440" width="320" height="110" as="geometry"/>
                    </mxCell>
                </object>
                <object label="❌ StarCoder 7B&lt;br&gt;&lt;br&gt;❌ No output produced&lt;br&gt;❌ Complete failure&lt;br&gt;❌ No Lit 3 understanding&lt;br&gt;❌ Cannot handle component synthesis" tooltip="StarCoder 7B completely failed A1 with no output produced. The model showed no understanding of Lit 3 component development, decorators, or modern web development patterns. This represents a complete failure in component synthesis and framework understanding." id="a1-starcoder7b">
                    <mxCell style="rounded=1;whiteSpace=wrap;html=1;fontSize=12;fillColor=#f8cecc;strokeColor=#b85450;verticalAlign=top;spacingTop=5;" parent="1" vertex="1">
                        <mxGeometry x="1060" y="440" width="320" height="110" as="geometry"/>
                    </mxCell>
                </object>
                <object label="🧩 B1 — JS Closure Bug Review Results&lt;br&gt;&lt;br&gt;**Prompt:** Review this JavaScript snippet and describe any bugs or performance issues. Explain clearly what will be logged and why.&lt;br&gt;&lt;br&gt;```ts&lt;br&gt;const arr = [1, 2, 3];&lt;br&gt;for (var i = 0; i &lt; arr.length; i++) {&lt;br&gt;  setTimeout(() =&gt; console.log(i), 1000);&lt;br&gt;}&lt;br&gt;```" tooltip="Results for B1: JavaScript closure bug review and debugging. This test evaluates models&#39; understanding of JavaScript closures, variable scoping, and asynchronous execution. The challenge requires identifying the `var` closure issue, explaining why `3,3,3` will be logged, and providing the correct fix using `let` instead of `var`." id="b1-title">
                    <mxCell style="rounded=1;whiteSpace=wrap;html=1;fontSize=16;fontStyle=1;fillColor=#d5e8d4;strokeColor=#82b366;verticalAlign=top;spacingTop=10;" parent="1" vertex="1">
                        <mxGeometry x="40" y="560" width="1320" height="220" as="geometry"/>
                    </mxCell>
                </object>
                <object label="🥇 Winner: Qwen 2.5 7B&lt;br&gt;&lt;br&gt;✅ Excellent bug identification&lt;br&gt;✅ Perfect explanation of closure issue&lt;br&gt;✅ Correct fix with `let`&lt;br&gt;✅ Best clarity and understanding" tooltip="Qwen 2.5 7B wins B1 with excellent bug identification and perfect explanation of the closure issue. The model correctly identified the `var` closure problem, explained why `3,3,3` will be logged, and provided the correct fix using `let`. This represents the best understanding of JavaScript closures and debugging." id="b1-winner">
                    <mxCell style="rounded=1;whiteSpace=wrap;html=1;fontSize=12;fillColor=#d5e8d4;strokeColor=#82b366;verticalAlign=top;spacingTop=5;" parent="1" vertex="1">
                        <mxGeometry x="40" y="800" width="320" height="100" as="geometry"/>
                    </mxCell>
                </object>
                <object label="🥈 DeepSeek 6.7B&lt;br&gt;&lt;br&gt;✅ Good bug identification&lt;br&gt;✅ Correct explanation of closure&lt;br&gt;✅ Proper fix with `let`&lt;br&gt;⚠️ Mentions &quot;hoisting&quot; imprecisely" tooltip="DeepSeek 6.7B shows good B1 performance with correct bug identification and proper fix. The model correctly identified the `var` closure issue, explained the `3,3,3` output, and provided the correct `let` fix. However, it mentioned &quot;hoisting&quot; imprecisely, showing some confusion about the underlying mechanism." id="b1-deepseek">
                    <mxCell style="rounded=1;whiteSpace=wrap;html=1;fontSize=12;fillColor=#fff2cc;strokeColor=#d6b656;verticalAlign=top;spacingTop=5;" parent="1" vertex="1">
                        <mxGeometry x="380" y="800" width="320" height="100" as="geometry"/>
                    </mxCell>
                </object>
                <object label="🥉 StarCoder 15B&lt;br&gt;&lt;br&gt;⚠️ Partial understanding&lt;br&gt;⚠️ Mixed index/value confusion&lt;br&gt;⚠️ Claims `1,2,3` output (wrong)&lt;br&gt;⚠️ Keeps `var` in fix" tooltip="StarCoder 15B shows partial B1 understanding with mixed results. The model had confusion between index and value, incorrectly claimed `1,2,3` would be logged, and kept `var` in the fix instead of using `let`. This represents incomplete understanding of JavaScript closures and variable scoping." id="b1-starcoder15b">
                    <mxCell style="rounded=1;whiteSpace=wrap;html=1;fontSize=12;fillColor=#ffe6cc;strokeColor=#d79b00;verticalAlign=top;spacingTop=5;" parent="1" vertex="1">
                        <mxGeometry x="720" y="800" width="320" height="100" as="geometry"/>
                    </mxCell>
                </object>
                <object label="❌ StarCoder 7B&lt;br&gt;&lt;br&gt;❌ No output produced&lt;br&gt;❌ Complete failure&lt;br&gt;❌ No debugging understanding&lt;br&gt;❌ Cannot handle closure concepts" tooltip="StarCoder 7B completely failed B1 with no output produced. The model showed no understanding of JavaScript closures, debugging, or asynchronous execution concepts. This represents a complete failure in JavaScript debugging and closure understanding." id="b1-starcoder7b">
                    <mxCell style="rounded=1;whiteSpace=wrap;html=1;fontSize=12;fillColor=#f8cecc;strokeColor=#b85450;verticalAlign=top;spacingTop=5;" parent="1" vertex="1">
                        <mxGeometry x="1060" y="800" width="320" height="100" as="geometry"/>
                    </mxCell>
                </object>
                <object label="🧩 C1 — Refactor to Lit 3 Results&lt;br&gt;&lt;br&gt;**Prompt:** Refactor this plain JavaScript class into an equivalent Lit 3 component that displays a greeting when rendered. Keep the same logic but convert it to TypeScript and Lit syntax using decorators.&lt;br&gt;&lt;br&gt;```js&lt;br&gt;class Hello {&lt;br&gt;  constructor(name) { this.name = name; }&lt;br&gt;  greet() { alert(&#39;Hello &#39; + this.name); }&lt;br&gt;}&lt;br&gt;```&lt;br&gt;&lt;br&gt;Return the full TypeScript component code using: import { LitElement, html, css } from &#39;lit&#39;, import { customElement, property } from &#39;lit/decorators.js&#39;, @customElement(&#39;hello-greeter&#39;) and @property decorators, A button that calls greet() to show the alert" tooltip="Results for C1: Refactoring plain JavaScript to Lit 3 with decorators and button interaction. This test evaluates models&#39; understanding of framework migration, decorator usage, and component interaction patterns. The challenge requires proper import statements, decorator implementation, button event handling, and maintaining the original functionality while modernizing the code structure." id="c1-title">
                    <mxCell style="rounded=1;whiteSpace=wrap;html=1;fontSize=16;fontStyle=1;fillColor=#d5e8d4;strokeColor=#82b366;verticalAlign=top;spacingTop=10;" parent="1" vertex="1">
                        <mxGeometry x="40" y="920" width="1320" height="300" as="geometry"/>
                    </mxCell>
                </object>
                <object label="⚠️ All Models Showed Issues&lt;br&gt;&lt;br&gt;❌ **Critical Gap**: All models missed key requirements&lt;br&gt;❌ Missing `@customElement` decorator&lt;br&gt;❌ Missing button implementation&lt;br&gt;⚠️ Incomplete refactoring to Lit 3" tooltip="C1 reveals a critical gap in all models&#39; understanding of complete Lit 3 refactoring. Every model failed to implement the full specification, missing key requirements like the `@customElement` decorator and button implementation. This represents a fundamental misunderstanding of complete component refactoring and specification adherence." id="c1-critical-issue">
                    <mxCell style="rounded=1;whiteSpace=wrap;html=1;fontSize=12;fillColor=#f8cecc;strokeColor=#b85450;verticalAlign=top;spacingTop=5;" parent="1" vertex="1">
                        <mxGeometry x="40" y="1250" width="1320" height="110" as="geometry"/>
                    </mxCell>
                </object>
                <object label="🔧 Correct Refactoring Pattern&lt;br&gt;&lt;br&gt;```ts&lt;br&gt;import { LitElement, html, css } from &#39;lit&#39;;&lt;br&gt;import { customElement, property } from &#39;lit/decorators.js&#39;;&lt;br&gt;&lt;br&gt;@customElement(&#39;hello-greeter&#39;)&lt;br&gt;export class HelloGreeter extends LitElement {&lt;br&gt;  @property() name = &#39;&#39;;&lt;br&gt;  greet() { alert(&#39;Hello &#39; + this.name); }&lt;br&gt;  render() {&lt;br&gt;    return html`&lt;button @click=${this.greet}&gt;Greet&lt;/button&gt;`;&lt;br&gt;  }&lt;br&gt;}```" tooltip="The correct refactoring pattern requires proper import statements, @customElement decorator, @property decorator, and button implementation with event handling. The component should extend LitElement, use decorators correctly, and include a button that calls the greet method. None of the tested models implemented this complete pattern correctly." id="c1-correct-pattern">
                    <mxCell style="rounded=1;whiteSpace=wrap;html=1;fontSize=10;fillColor=#e1d5e7;strokeColor=#9673a6;verticalAlign=top;spacingTop=5;" parent="1" vertex="1">
                        <mxGeometry x="40" y="1390" width="1320" height="200" as="geometry"/>
                    </mxCell>
                </object>
                <object label="🧩 D2 — Fetch in Lit 3 Results&lt;br&gt;&lt;br&gt;**Prompt:** Inside a Lit 3 component, create a method that fetches user data from `/api/users` using the Fetch API and renders the list of names in the template. Show the complete component code including imports, properties, lifecycle hook, and template. The fetch should run once on first update.&lt;br&gt;&lt;br&gt;Requirements: TypeScript, import { LitElement, html, css } from &#39;lit&#39;, import { customElement, property, state } from &#39;lit/decorators.js&#39;, @customElement(&#39;user-list&#39;), Use `@state()` to store `users: Array&lt;{ id: number; name: string }&gt;`, Implement `protected async firstUpdated()` to fetch and set `this.users`, Render a `&lt;ul&gt;` with `&lt;li&gt;${user.name}&lt;/li&gt;` for each user" tooltip="Results for D2: Fetch integration in Lit 3 with lifecycle management and state handling. This test evaluates models&#39; understanding of API integration, lifecycle hooks, state management, and template rendering. The challenge requires proper async/await usage, lifecycle hook implementation, state decorators, and dynamic template rendering." id="d2-title">
                    <mxCell style="rounded=1;whiteSpace=wrap;html=1;fontSize=16;fontStyle=1;fillColor=#d5e8d4;strokeColor=#82b366;verticalAlign=top;spacingTop=10;" parent="1" vertex="1">
                        <mxGeometry x="40" y="1630" width="1320" height="260" as="geometry"/>
                    </mxCell>
                </object>
                <object label="🥇 Winner: Qwen 2.5 7B&lt;br&gt;&lt;br&gt;✅ Fully compliant implementation&lt;br&gt;✅ Adds error handling &amp; styles&lt;br&gt;✅ Perfect spec adherence&lt;br&gt;✅ Best overall quality (9.5/10)" tooltip="Qwen 2.5 7B wins D2 with fully compliant implementation and best overall quality. The model correctly implemented all requirements including imports, decorators, state management, lifecycle hooks, and template rendering. Additionally, it added error handling and styles, demonstrating excellent understanding of production-ready code." id="d2-winner">
                    <mxCell style="rounded=1;whiteSpace=wrap;html=1;fontSize=12;fillColor=#d5e8d4;strokeColor=#82b366;verticalAlign=top;spacingTop=5;" parent="1" vertex="1">
                        <mxGeometry x="40" y="1920" width="320" height="100" as="geometry"/>
                    </mxCell>
                </object>
                <object label="🥈 DeepSeek 6.7B&lt;br&gt;&lt;br&gt;✅ Meets all requirements&lt;br&gt;✅ Proper imports/decorators/state&lt;br&gt;✅ Correct lifecycle/render&lt;br&gt;✅ Good promise chain handling (9/10)" tooltip="DeepSeek 6.7B shows strong D2 performance with complete requirement compliance. The model correctly implemented imports, decorators, state management, lifecycle hooks, and template rendering. It demonstrated good understanding of promise chains and async operations, earning a solid 9/10 score." id="d2-deepseek">
                    <mxCell style="rounded=1;whiteSpace=wrap;html=1;fontSize=12;fillColor=#fff2cc;strokeColor=#d6b656;verticalAlign=top;spacingTop=5;" parent="1" vertex="1">
                        <mxGeometry x="380" y="1920" width="320" height="100" as="geometry"/>
                    </mxCell>
                </object>
                <object label="🥉 StarCoder 15B&lt;br&gt;&lt;br&gt;✅ Fully compliant implementation&lt;br&gt;✅ Correct spec adherence&lt;br&gt;✅ Clean and concise code&lt;br&gt;✅ Good implementation (9/10)" tooltip="StarCoder 15B demonstrates solid D2 performance with fully compliant implementation. The model correctly implemented all requirements with clean, concise code. It showed good understanding of Lit 3 patterns and API integration, earning a solid 9/10 score with efficient implementation." id="d2-starcoder15b">
                    <mxCell style="rounded=1;whiteSpace=wrap;html=1;fontSize=12;fillColor=#ffe6cc;strokeColor=#d79b00;verticalAlign=top;spacingTop=5;" parent="1" vertex="1">
                        <mxGeometry x="720" y="1920" width="320" height="100" as="geometry"/>
                    </mxCell>
                </object>
                <object label="❌ StarCoder 7B&lt;br&gt;&lt;br&gt;❌ No output produced&lt;br&gt;❌ Complete failure&lt;br&gt;❌ No API integration understanding&lt;br&gt;❌ Cannot handle fetch operations" tooltip="StarCoder 7B completely failed D2 with no output produced. The model showed no understanding of API integration, fetch operations, or lifecycle management in Lit 3. This represents a complete failure in modern web development and component lifecycle understanding." id="d2-starcoder7b">
                    <mxCell style="rounded=1;whiteSpace=wrap;html=1;fontSize=12;fillColor=#f8cecc;strokeColor=#b85450;verticalAlign=top;spacingTop=5;" parent="1" vertex="1">
                        <mxGeometry x="1060" y="1920" width="320" height="100" as="geometry"/>
                    </mxCell>
                </object>
                <object label="🧩 E1 — Reactive Properties vs Internal State Results&lt;br&gt;&lt;br&gt;**Prompt:** Explain the difference between reactive properties and internal state in Lit 3. When should each be used? Provide a short TypeScript code example to illustrate both." tooltip="Results for E1: Concept explanation of reactive properties vs internal state in Lit 3. This test evaluates models&#39; understanding of Lit 3 framework concepts, best practices, and when to use different state management approaches. The challenge requires clear explanation of the differences, use cases, and practical code examples demonstrating both concepts." id="e1-title">
                    <mxCell style="rounded=1;whiteSpace=wrap;html=1;fontSize=16;fontStyle=1;fillColor=#d5e8d4;strokeColor=#82b366;verticalAlign=top;spacingTop=10;" parent="1" vertex="1">
                        <mxGeometry x="40" y="2040" width="1320" height="120" as="geometry"/>
                    </mxCell>
                </object>
                <object label="🥇 Winner: Qwen 2.5 7B&lt;br&gt;&lt;br&gt;✅ Good concept explanation&lt;br&gt;✅ Clear distinction between types&lt;br&gt;✅ Readable and understandable&lt;br&gt;⚠️ Didn&#39;t mention `@state()` explicitly" tooltip="Qwen 2.5 7B wins E1 with good concept explanation and clear distinction between reactive properties and internal state. The model provided readable and understandable explanations with good examples. However, it didn&#39;t explicitly mention the `@state()` decorator, showing some gaps in complete framework knowledge." id="e1-winner">
                    <mxCell style="rounded=1;whiteSpace=wrap;html=1;fontSize=12;fillColor=#d5e8d4;strokeColor=#82b366;verticalAlign=top;spacingTop=5;" parent="1" vertex="1">
                        <mxGeometry x="40" y="2190" width="320" height="100" as="geometry"/>
                    </mxCell>
                </object>
                <object label="🥈 DeepSeek 6.7B&lt;br&gt;&lt;br&gt;⚠️ Mixed understanding&lt;br&gt;✅ `@property` explained OK&lt;br&gt;❌ Claimed `@state` doesn&#39;t trigger updates (wrong)&lt;br&gt;⚠️ Wrong import path; no `@customElement`" tooltip="DeepSeek 6.7B shows mixed E1 understanding with some correct explanations but significant errors. The model explained `@property` correctly but made incorrect claims about `@state` not triggering updates. It also had wrong import paths and missed the `@customElement` decorator, showing incomplete framework knowledge." id="e1-deepseek">
                    <mxCell style="rounded=1;whiteSpace=wrap;html=1;fontSize=12;fillColor=#fff2cc;strokeColor=#d6b656;verticalAlign=top;spacingTop=5;" parent="1" vertex="1">
                        <mxGeometry x="380" y="2190" width="320" height="100" as="geometry"/>
                    </mxCell>
                </object>
                <object label="🥉 StarCoder 15B&lt;br&gt;&lt;br&gt;❌ Incorrect implementation&lt;br&gt;❌ Used `{{}}` (not Lit syntax)&lt;br&gt;❌ Wrong internal state claims&lt;br&gt;❌ Missing imports/`@customElement`" tooltip="StarCoder 15B shows incorrect E1 implementation with fundamental misunderstandings. The model used `{{}}` syntax which is not Lit, made wrong claims about internal state, and missed proper imports and `@customElement` decorator. This represents poor understanding of Lit 3 framework concepts and syntax." id="e1-starcoder15b">
                    <mxCell style="rounded=1;whiteSpace=wrap;html=1;fontSize=12;fillColor=#ffe6cc;strokeColor=#d79b00;verticalAlign=top;spacingTop=5;" parent="1" vertex="1">
                        <mxGeometry x="720" y="2190" width="320" height="100" as="geometry"/>
                    </mxCell>
                </object>
                <object label="❌ StarCoder 7B&lt;br&gt;&lt;br&gt;❌ Off-topic content&lt;br&gt;❌ Irrelevant lit-html content&lt;br&gt;❌ Not Lit 3–accurate&lt;br&gt;❌ No framework understanding" tooltip="StarCoder 7B completely failed E1 with off-topic and irrelevant content. The model provided content about lit-html that wasn&#39;t accurate for Lit 3, showing no understanding of the framework concepts or the specific question asked. This represents a complete failure in framework concept understanding." id="e1-starcoder7b">
                    <mxCell style="rounded=1;whiteSpace=wrap;html=1;fontSize=12;fillColor=#f8cecc;strokeColor=#b85450;verticalAlign=top;spacingTop=5;" parent="1" vertex="1">
                        <mxGeometry x="1060" y="2190" width="320" height="100" as="geometry"/>
                    </mxCell>
                </object>
                <object label="📊 Overall Performance Summary" tooltip="Comprehensive summary of all models&#39; performance across the 5 Round 5B scenarios. This analysis reveals the overall Lit 3 and web development expertise, consistency, and reliability of each model across different complexity levels and development tasks." id="summary-title">
                    <mxCell style="rounded=1;whiteSpace=wrap;html=1;fontSize=16;fontStyle=1;fillColor=#dae8fc;strokeColor=#6c8ebf;verticalAlign=top;spacingTop=10;" parent="1" vertex="1">
                        <mxGeometry x="40" y="2310" width="1320" height="40" as="geometry"/>
                    </mxCell>
                </object>
                <object label="🥇 Overall Winner: Qwen 2.5 7B (9.1/10)&lt;br&gt;&lt;br&gt;✅ Best balance of modern Lit 3 code&lt;br&gt;✅ Excellent explanations and reliability&lt;br&gt;✅ Strong debugging capabilities&lt;br&gt;✅ Most consistent performance&lt;br&gt;&lt;br&gt;Recommended for: Production Lit 3 development" tooltip="Qwen 2.5 7B emerges as the overall winner with 9.1/10, demonstrating the best balance of modern Lit 3 code, explanations, and reliability. The model shows excellent debugging capabilities, strong framework understanding, and most consistent performance across all scenarios. It represents the best choice for production Lit 3 development requiring modern patterns and reliable output." id="overall-winner">
                    <mxCell style="rounded=1;whiteSpace=wrap;html=1;fontSize=12;fillColor=#d5e8d4;strokeColor=#82b366;verticalAlign=top;spacingTop=5;" parent="1" vertex="1">
                        <mxGeometry x="40" y="2370" width="320" height="140" as="geometry"/>
                    </mxCell>
                </object>
                <object label="🥈 Strong Performer: StarCoder 15B (8.3/10)&lt;br&gt;&lt;br&gt;✅ Good output reliability&lt;br&gt;✅ Solid Lit 3 accuracy&lt;br&gt;⚠️ Some spec adherence issues&lt;br&gt;⚠️ Mixed debugging performance&lt;br&gt;&lt;br&gt;Recommended for: General Lit 3 development" tooltip="StarCoder 15B scores 8.3/10 with strong performance across most scenarios. The model demonstrates good output reliability and solid Lit 3 accuracy. However, it has some spec adherence issues and mixed debugging performance. It provides a solid option for general Lit 3 development work with reliable output." id="strong-performer">
                    <mxCell style="rounded=1;whiteSpace=wrap;html=1;fontSize=12;fillColor=#fff2cc;strokeColor=#d6b656;verticalAlign=top;spacingTop=5;" parent="1" vertex="1">
                        <mxGeometry x="380" y="2370" width="320" height="140" as="geometry"/>
                    </mxCell>
                </object>
                <object label="🥉 Solid Option: DeepSeek 6.7B (7.6/10)&lt;br&gt;&lt;br&gt;✅ Good output reliability&lt;br&gt;⚠️ Lit 3 accuracy issues&lt;br&gt;⚠️ Some spec adherence problems&lt;br&gt;✅ Good reasoning/debugging&lt;br&gt;&lt;br&gt;Recommended for: Mixed development tasks" tooltip="DeepSeek 6.7B scores 7.6/10 with solid performance but some accuracy issues. The model shows good output reliability and strong reasoning/debugging capabilities. However, it has Lit 3 accuracy issues and some spec adherence problems. It works well for mixed development tasks requiring debugging skills." id="solid-option">
                    <mxCell style="rounded=1;whiteSpace=wrap;html=1;fontSize=12;fillColor=#ffe6cc;strokeColor=#d79b00;verticalAlign=top;spacingTop=5;" parent="1" vertex="1">
                        <mxGeometry x="720" y="2370" width="320" height="140" as="geometry"/>
                    </mxCell>
                </object>
                <object label="❌ Complete Failure: StarCoder 7B (0/10)&lt;br&gt;&lt;br&gt;❌ No output reliability&lt;br&gt;❌ No Lit 3 understanding&lt;br&gt;❌ No debugging capabilities&lt;br&gt;❌ Cannot handle web development&lt;br&gt;&lt;br&gt;Not recommended for Lit 3 development" tooltip="StarCoder 7B scores 0/10 with complete failure across all scenarios. The model shows no output reliability, no understanding of Lit 3 or web development concepts, and no debugging capabilities. This model is not recommended for any Lit 3 or modern web development work." id="complete-failure">
                    <mxCell style="rounded=1;whiteSpace=wrap;html=1;fontSize=12;fillColor=#f8cecc;strokeColor=#b85450;verticalAlign=top;spacingTop=5;" parent="1" vertex="1">
                        <mxGeometry x="1060" y="2370" width="320" height="140" as="geometry"/>
                    </mxCell>
                </object>
                <object label="🔮 Key Insights &amp; Recommendations" tooltip="Key insights from the Round 5B evaluation revealing important patterns, strengths, and limitations across different models and web development scenarios. This analysis provides actionable recommendations for choosing the right model based on specific Lit 3 and web development requirements." id="insights-title">
                    <mxCell style="rounded=1;whiteSpace=wrap;html=1;fontSize=16;fontStyle=1;fillColor=#e1d5e7;strokeColor=#9673a6;verticalAlign=top;spacingTop=10;" parent="1" vertex="1">
                        <mxGeometry x="40" y="2530" width="1320" height="40" as="geometry"/>
                    </mxCell>
                </object>
                <object label="💡 Critical Findings&lt;br&gt;&lt;br&gt;• **Refactoring Gap**: All models failed complete C1 refactoring&lt;br&gt;• **Spec Adherence**: Models struggle with full requirement compliance&lt;br&gt;• **Size Matters**: 7B models struggle with complex web development&lt;br&gt;• **Consistency**: Qwen 2.5 7B most reliable across scenarios&lt;br&gt;• **Framework Knowledge**: Mixed understanding of Lit 3 concepts" tooltip="Critical findings reveal significant gaps in web development understanding across all models. The most concerning issue is universal failure in complete refactoring tasks (C1), where all models missed key requirements. Models also struggle with full specification adherence. Smaller 7B models show particular difficulty with complex web development, while Qwen 2.5 7B demonstrates the most consistent performance." id="critical-findings">
                    <mxCell style="rounded=1;whiteSpace=wrap;html=1;fontSize=11;fillColor=#f8cecc;strokeColor=#b85450;verticalAlign=top;spacingTop=5;" parent="1" vertex="1">
                        <mxGeometry x="40" y="2590" width="320" height="160" as="geometry"/>
                    </mxCell>
                </object>
                <object label="🎯 Best Use Cases&lt;br&gt;&lt;br&gt;• **Qwen 2.5 7B**: Production Lit 3, debugging, modern web dev&lt;br&gt;• **StarCoder 15B**: General Lit 3, reliable development&lt;br&gt;• **DeepSeek 6.7B**: Mixed tasks, debugging, legacy compatibility&lt;br&gt;• **StarCoder 7B**: Avoid for web dev, consider simpler tasks only" tooltip="Best use cases for each model based on Round 5B performance. Qwen 2.5 7B excels at production Lit 3 development, debugging, and modern web development. StarCoder 15B provides reliable general Lit 3 development. DeepSeek 6.7B works well for mixed tasks requiring debugging and legacy compatibility. StarCoder 7B should be avoided for web development and considered only for simpler programming tasks." id="best-use-cases">
                    <mxCell style="rounded=1;whiteSpace=wrap;html=1;fontSize=11;fillColor=#d5e8d4;strokeColor=#82b366;verticalAlign=top;spacingTop=5;" parent="1" vertex="1">
                        <mxGeometry x="380" y="2590" width="320" height="160" as="geometry"/>
                    </mxCell>
                </object>
                <object label="⚠️ Common Weaknesses&lt;br&gt;&lt;br&gt;• **Complete Refactoring**: All models miss key requirements&lt;br&gt;• **Spec Adherence**: Incomplete implementation of specifications&lt;br&gt;• **Framework Knowledge**: Mixed understanding of Lit 3 concepts&lt;br&gt;• **Example Quality**: Demo code often incomplete&lt;br&gt;• **Import Accuracy**: Some models use legacy imports" tooltip="Common weaknesses across all models reveal areas for improvement in web development expertise. The most critical issue is universal failure in complete refactoring tasks, where all models miss key requirements. Models also struggle with full specification adherence and have mixed understanding of Lit 3 framework concepts. Example quality is often incomplete, and some models use legacy imports instead of modern ones." id="common-weaknesses">
                    <mxCell style="rounded=1;whiteSpace=wrap;html=1;fontSize=11;fillColor=#fff2cc;strokeColor=#d6b656;verticalAlign=top;spacingTop=5;" parent="1" vertex="1">
                        <mxGeometry x="720" y="2590" width="320" height="160" as="geometry"/>
                    </mxCell>
                </object>
                <object label="🚀 Future Improvements&lt;br&gt;&lt;br&gt;• **Enhanced Training**: Focus on complete specification adherence&lt;br&gt;• **Framework Mastery**: Better Lit 3 concept understanding&lt;br&gt;• **Refactoring Skills**: Improve complete code transformation&lt;br&gt;• **Import Accuracy**: Use modern framework imports&lt;br&gt;• **Example Completeness**: Generate complete, working examples" tooltip="Future improvements needed across all models to enhance web development expertise. The most critical need is enhanced training on complete specification adherence, as this represents a universal failure. Models also need better Lit 3 framework concept understanding and improved refactoring skills for complete code transformation. Import accuracy needs improvement to use modern framework imports, and example generation should be more complete and working." id="future-improvements">
                    <mxCell style="rounded=1;whiteSpace=wrap;html=1;fontSize=11;fillColor=#e1d5e7;strokeColor=#9673a6;verticalAlign=top;spacingTop=5;" parent="1" vertex="1">
                        <mxGeometry x="1060" y="2590" width="320" height="160" as="geometry"/>
                    </mxCell>
                </object>
                <object label="📈 Performance Metrics Matrix" tooltip="Quantitative performance matrix showing detailed scores for each model across all Round 5B scenarios and evaluation criteria. This matrix provides a comprehensive comparison of Lit 3 and web development expertise across different models and complexity levels." id="metrics-title">
                    <mxCell style="rounded=1;whiteSpace=wrap;html=1;fontSize=16;fontStyle=1;fillColor=#dae8fc;strokeColor=#6c8ebf;verticalAlign=top;spacingTop=10;" parent="1" vertex="1">
                        <mxGeometry x="40" y="2770" width="1320" height="40" as="geometry"/>
                    </mxCell>
                </object>
                <object label="Round 5B Performance Matrix&lt;br&gt;&lt;br&gt;&lt;table style=&quot;width:100%; border-collapse:collapse;&quot;&gt;&lt;tr&gt;&lt;th style=&quot;text-align:left; padding:4px;&quot;&gt;Model&lt;/th&gt;&lt;th style=&quot;text-align:center; padding:4px;&quot;&gt;Output Reliability&lt;/th&gt;&lt;th style=&quot;text-align:center; padding:4px;&quot;&gt;Lit 3 Accuracy&lt;/th&gt;&lt;th style=&quot;text-align:center; padding:4px;&quot;&gt;Spec Adherence&lt;/th&gt;&lt;th style=&quot;text-align:center; padding:4px;&quot;&gt;Reasoning/Debugging&lt;/th&gt;&lt;th style=&quot;text-align:center; padding:4px;&quot;&gt;Concept Accuracy&lt;/th&gt;&lt;th style=&quot;text-align:center; padding:4px;&quot;&gt;Overall&lt;/th&gt;&lt;/tr&gt;&lt;tr&gt;&lt;td style=&quot;padding:4px;&quot;&gt;&lt;b&gt;Qwen 2.5 7B&lt;/b&gt;&lt;/td&gt;&lt;td style=&quot;text-align:center; padding:4px;&quot;&gt;✅ 10/10&lt;/td&gt;&lt;td style=&quot;text-align:center; padding:4px;&quot;&gt;✅ 10/10&lt;/td&gt;&lt;td style=&quot;text-align:center; padding:4px;&quot;&gt;⚠️ 8/10&lt;/td&gt;&lt;td style=&quot;text-align:center; padding:4px;&quot;&gt;✅ 10/10&lt;/td&gt;&lt;td style=&quot;text-align:center; padding:4px;&quot;&gt;✅ 9/10&lt;/td&gt;&lt;td style=&quot;text-align:center; padding:4px;&quot;&gt;&lt;b&gt;🥇 9.1/10&lt;/b&gt;&lt;/td&gt;&lt;/tr&gt;&lt;tr&gt;&lt;td style=&quot;padding:4px;&quot;&gt;&lt;b&gt;StarCoder 15B&lt;/b&gt;&lt;/td&gt;&lt;td style=&quot;text-align:center; padding:4px;&quot;&gt;✅ 9/10&lt;/td&gt;&lt;td style=&quot;text-align:center; padding:4px;&quot;&gt;✅ 9/10&lt;/td&gt;&lt;td style=&quot;text-align:center; padding:4px;&quot;&gt;⚠️ 7/10&lt;/td&gt;&lt;td style=&quot;text-align:center; padding:4px;&quot;&gt;⚠️ 6/10&lt;/td&gt;&lt;td style=&quot;text-align:center; padding:4px;&quot;&gt;❌ 4/10&lt;/td&gt;&lt;td style=&quot;text-align:center; padding:4px;&quot;&gt;&lt;b&gt;🥈 8.3/10&lt;/b&gt;&lt;/td&gt;&lt;/tr&gt;&lt;tr&gt;&lt;td style=&quot;padding:4px;&quot;&gt;&lt;b&gt;DeepSeek 6.7B&lt;/b&gt;&lt;/td&gt;&lt;td style=&quot;text-align:center; padding:4px;&quot;&gt;✅ 9/10&lt;/td&gt;&lt;td style=&quot;text-align:center; padding:4px;&quot;&gt;⚠️ 6/10&lt;/td&gt;&lt;td style=&quot;text-align:center; padding:4px;&quot;&gt;⚠️ 7/10&lt;/td&gt;&lt;td style=&quot;text-align:center; padding:4px;&quot;&gt;✅ 9/10&lt;/td&gt;&lt;td style=&quot;text-align:center; padding:4px;&quot;&gt;⚠️ 6/10&lt;/td&gt;&lt;td style=&quot;text-align:center; padding:4px;&quot;&gt;&lt;b&gt;🥉 7.6/10&lt;/b&gt;&lt;/td&gt;&lt;/tr&gt;&lt;tr&gt;&lt;td style=&quot;padding:4px;&quot;&gt;&lt;b&gt;StarCoder 7B&lt;/b&gt;&lt;/td&gt;&lt;td style=&quot;text-align:center; padding:4px;&quot;&gt;❌ 0/10&lt;/td&gt;&lt;td style=&quot;text-align:center; padding:4px;&quot;&gt;❌ 0/10&lt;/td&gt;&lt;td style=&quot;text-align:center; padding:4px;&quot;&gt;❌ 0/10&lt;/td&gt;&lt;td style=&quot;text-align:center; padding:4px;&quot;&gt;❌ 0/10&lt;/td&gt;&lt;td style=&quot;text-align:center; padding:4px;&quot;&gt;❌ 0/10&lt;/td&gt;&lt;td style=&quot;text-align:center; padding:4px;&quot;&gt;&lt;b&gt;❌ 0/10&lt;/b&gt;&lt;/td&gt;&lt;/tr&gt;&lt;/table&gt;" tooltip="Performance matrix showing quantitative scores for each model across Round 5B evaluation criteria. Qwen 2.5 7B leads with 9.1/10 overall, excelling in output reliability, Lit 3 accuracy, and reasoning/debugging. StarCoder 15B scores 8.3/10 with good reliability and accuracy but weaker debugging. DeepSeek 6.7B scores 7.6/10 with strong debugging but Lit 3 accuracy issues. StarCoder 7B shows complete failure across all metrics with 0/10." id="performance-matrix">
                    <mxCell style="rounded=1;whiteSpace=wrap;html=1;fontSize=11;fillColor=#f5f5f5;strokeColor=#666666;verticalAlign=top;spacingTop=5;" parent="1" vertex="1">
                        <mxGeometry x="40" y="2830" width="1320" height="160" as="geometry"/>
                    </mxCell>
                </object>
            </root>
        </mxGraphModel>
    </diagram>
</mxfile>